:SAMPLES-PER-SECOND 30
:FULLY-SPECIFIED
:DEGREES
533
root  -74.8187 31.058 37.4287 -7.15983 64.0084 -10.0212
RightUpLeg  -7.29114 -32.8939 0.201206
RightLeg  56.4359 -2.97185 -3.96939
RightFoot  -6.71254 0.027847 0.852475
RightToes  -55.5063 -0.352628 -0.384991
Spine  7.99584 1.73246 0.0767857
Spine1  14.0155 3.84502 0.164795
HEad  -3.21621 25.6519 -3.00417
LeftShoulder1  0 -2.42657e-020 -4.95415e-022
LeftArm  9.51447 -9.66643 -63.5621
LeftForeArm  164.246 -71.3477 -147.918
LeftHand  -0.251791 -1.09699 25.6409
RightShoulder  0 2.42657e-020 1.07489e-018
RightArm  12.3935 13.7205 58.0831
RightForeArm  -177.655 74.0199 141.402
RightHand  -6.49561 11.9748 -56.4866
LeftUpLeg  -32.4725 10.1625 -14.3394
LeftLeg  41.2254 7.10694 5.42612
LeftFoot  -11.7567 -0.174445 -1.69422
LeftToes  24.2877 8.72033e-007 1.17809e-007
534
root  -74.2966 30.6221 38.1875 -5.69644 65.8868 -7.7947
RightUpLeg  -10.8675 -33.2096 -2.31245
RightLeg  67.2338 -0.763394 -1.67401
RightFoot  -1.9663 -0.000678655 0.338122
RightToes  -48.6775 -0.291243 -0.358714
Spine  8.3144 1.62955 -0.574667
Spine1  14.4492 3.75086 -1.14201
HEad  -4.57503 25.2995 -2.69185
LeftShoulder1  0 -2.42657e-020 -4.95415e-022
LeftArm  9.29631 -13.5357 -62.7368
LeftForeArm  162.849 -72.7972 -144.648
LeftHand  -0.448446 -1.85554 26.8984
RightShoulder  0 2.42657e-020 1.07489e-018
RightArm  11.4164 13.9477 59.142
RightForeArm  -174.683 73.8027 142.059
RightHand  -6.46948 11.1348 -59.8694
LeftUpLeg  -33.0282 11.1087 -14.951
LeftLeg  45.9956 4.87844 4.42052
LeftFoot  -14.5176 -0.194455 -1.52658
LeftToes  22.0713 8.72033e-007 1.17809e-007
535
root  -73.7802 30.4416 38.7656 -1.93894 68.2213 -3.70383
RightUpLeg  -15.1838 -31.1618 -4.28148
RightLeg  75.7761 0.438524 1.09644
RightFoot  3.39458 0.00178286 0.317317
RightToes  -41.2911 -0.228879 -0.322299
Spine  8.15682 1.30297 -1.21425
Spine1  14.0651 3.20357 -2.48706
HEad  -3.57876 25.1667 -2.21098
LeftShoulder1  0 -2.42657e-020 -4.95415e-022
LeftArm  9.35735 -15.4093 -62.6755
LeftForeArm  161.813 -73.481 -142.859
LeftHand  -0.490959 -2.00086 27.2919
RightShoulder  0 2.42657e-020 1.07489e-018
RightArm  10.8518 13.1258 60.9235
RightForeArm  -171.445 73.2024 143.728
RightHand  -6.30282 10.4069 -61.9742
LeftUpLeg  -32.2876 10.1927 -16.0938
LeftLeg  47.3842 3.94917 3.75901
LeftFoot  -15.7365 -0.187848 -1.35922
LeftToes  20.7927 8.72033e-007 1.17809e-007
536
root  -73.3345 30.7159 39.3492 -2.16147 70.5788 -3.72081
RightUpLeg  -17.5185 -29.5154 -4.80514
RightLeg  78.4289 0.288798 0.732765
RightFoot  2.62933 0.000479532 0.268724
RightToes  -40.6157 -0.223421 -0.318574
Spine  8.16934 0.910697 -1.07443
Spine1  14.0919 2.34981 -2.23312
HEad  -3.07876 25.0048 -2.56257
LeftShoulder1  0 -2.42657e-020 -4.95415e-022
LeftArm  9.46099 -16.6266 -63.5194
LeftForeArm  160.669 -74.0116 -141.335
LeftHand  -0.556515 -2.28344 27.1002
RightShoulder  0 2.42657e-020 1.07489e-018
RightArm  9.29234 11.8581 62.2415
RightForeArm  -169.286 72.6243 145.193
RightHand  -6.55835 10.8321 -61.9504
LeftUpLeg  -30.2034 8.90952 -15.274
LeftLeg  46.4675 3.53482 3.25942
LeftFoot  -16.1457 -0.176242 -1.24252
LeftToes  22.6799 8.72033e-007 1.17809e-007
537
root  -72.9143 31.2191 39.8757 -3.49461 71.9942 -4.45968
RightUpLeg  -18.6449 -26.6376 -5.20633
RightLeg  77.2265 -0.519753 -2.05184
RightFoot  -0.0059864 -8.80962e-006 0.236623
RightToes  -38.1121 -0.203581 -0.304211
Spine  8.25242 0.720466 -0.718882
Spine1  14.2452 1.86822 -1.53444
HEad  -2.46206 25.2388 -3.97153
LeftShoulder1  0 -2.42657e-020 -4.95415e-022
LeftArm  9.53058 -17.1173 -64.4503
LeftForeArm  159.15 -74.3862 -140.175
LeftHand  -0.624462 -2.59399 26.7659
RightShoulder  0 2.42657e-020 1.07489e-018
RightArm  8.7849 11.0075 62.5537
RightForeArm  -168.711 72.3853 145.762
RightHand  -6.69235 11.0744 -61.8488
LeftUpLeg  -26.602 8.07306 -13.9366
LeftLeg  43.3114 3.28594 2.71175
LeftFoot  -14.6293 -0.12819 -0.998633
LeftToes  19.2924 8.72033e-007 1.17809e-007
538
root  -72.5714 31.8422 40.3344 -4.99633 73.6163 -6.04529
RightUpLeg  -19.1242 -24.1819 -5.41729
RightLeg  72.3133 -1.91455 -5.07659
RightFoot  -1.4942 -7.85944e-005 0.371695
RightToes  -36.4352 -0.190651 -0.294112
Spine  8.0637 0.442452 -0.304791
Spine1  13.9227 1.2213 -0.788106
HEad  -2.16352 25.6723 -4.83507
LeftShoulder1  0 -2.42657e-020 -4.95415e-022
LeftArm  10.252 -17.4706 -64.5473
LeftForeArm  159.308 -74.301 -140.445
LeftHand  -0.645301 -2.67545 26.8135
RightShoulder  0 2.42657e-020 1.07489e-018
RightArm  8.49346 9.93697 62.448
RightForeArm  -168 72.0059 146.626
RightHand  -6.68261 11.0032 -62.1045
LeftUpLeg  -23.2204 6.93369 -12.7535
LeftLeg  38.722 2.79443 1.95297
LeftFoot  -12.6283 -0.0758333 -0.685337
LeftToes  16.7618 8.72033e-007 1.17809e-007
539
root  -72.2614 32.4723 40.7475 -5.87856 75.1856 -7.45303
RightUpLeg  -19.1348 -21.4366 -5.89889
RightLeg  64.7192 -4.21988 -7.68583
RightFoot  -3.38257 0.0105192 0.733955
RightToes  -31.5211 -0.154534 -0.262398
Spine  7.70061 0.295277 -0.0248193
Spine1  13.3226 0.855596 -0.286853
HEad  -2.68526 25.6144 -5.26266
LeftShoulder1  0 -2.42657e-020 -4.95415e-022
LeftArm  11.0642 -18.2541 -64.1161
LeftForeArm  160.951 -73.9546 -141.505
LeftHand  -0.662154 -2.8085 26.2203
RightShoulder  0 2.42657e-020 1.07489e-018
RightArm  7.71909 8.57403 61.9996
RightForeArm  -166.131 71.1407 148.446
RightHand  -6.70697 10.9871 -62.365
LeftUpLeg  -20.0071 5.53262 -11.7364
LeftLeg  33.246 2.605 1.47266
LeftFoot  -9.90738 -0.0407991 -0.470723
LeftToes  14.9393 8.72033e-007 1.17809e-007
540
root  -72.0155 32.965 41.1855 -8.92488 77.0058 -11.1543
RightUpLeg  -18.2242 -18.4763 -6.08783
RightLeg  55.345 -6.86783 -8.65719
RightFoot  -4.29251 0.0241311 1.0216
RightToes  -30.199 -0.145294 -0.253347
Spine  7.24366 0.0733877 0.423099
Spine1  12.5122 0.33875 0.494244
HEad  -3.29479 25.6861 -5.60859
LeftShoulder1  0 -2.42657e-020 -4.95415e-022
LeftArm  11.5967 -19.1011 -63.7047
LeftForeArm  162.665 -73.4955 -142.821
LeftHand  -0.710721 -3.10149 25.493
RightShoulder  0 2.42657e-020 1.07489e-018
RightArm  6.91599 7.11567 61.1556
RightForeArm  -163.329 69.6176 151.22
RightHand  -6.77353 11.1195 -62.255
LeftUpLeg  -17.4938 4.39678 -10.4106
LeftLeg  28.6812 2.14041 0.994208
LeftFoot  -8.0459 -0.021495 -0.305642
LeftToes  14.6542 8.72033e-007 1.17809e-007
541
root  -71.7445 33.2962 41.573 -9.8239 78.6535 -12.8708
RightUpLeg  -16.5713 -14.3684 -7.22679
RightLeg  44.7831 -7.62431 -6.63031
RightFoot  -5.6524 0.0383505 1.15453
RightToes  -29.8459 -0.142861 -0.250893
Spine  6.551 -0.0262017 0.651518
Spine1  11.2578 0.0954783 0.899391
HEad  -3.35973 25.8037 -5.85914
LeftShoulder1  0 -2.42657e-020 -4.95415e-022
LeftArm  12.2123 -19.6157 -63.3975
LeftForeArm  165.55 -72.7334 -144.813
LeftHand  -0.681681 -3.00089 25.2775
RightShoulder  0 2.42657e-020 1.07489e-018
RightArm  6.82436 5.86123 60.1547
RightForeArm  -160.209 67.7607 154.034
RightHand  -6.79479 11.0088 -62.9293
LeftUpLeg  -15.7373 2.68085 -9.67951
LeftLeg  25.1586 1.65037 0.646174
LeftFoot  -6.10267 -0.00910064 -0.170733
LeftToes  11.932 8.72033e-007 1.17809e-007
